{"glyphs":{"0":{"ha":606,"x_min":31,"x_max":575,"o":"m 31 700 q 110 891 31 811 q 303 971 190 971 q 495 891 415 971 q 575 700 575 811 l 575 274 q 495 81 575 161 q 303 1 415 1 q 110 81 190 1 q 31 274 31 161 l 31 700 m 456 700 q 410 807 456 763 q 303 851 365 851 q 195 807 240 851 q 150 700 150 763 l 150 274 q 195 165 150 210 q 303 121 240 121 q 410 165 365 121 q 456 274 456 210 l 456 700 z "},"1":{"ha":306,"x_min":31,"x_max":275,"o":"m 31 853 l 31 972 l 117 972 l 124 972 q 224 938 189 969 q 256 897 244 918 q 270 857 267 876 q 274 807 274 838 q 274 754 275 799 q 274 703 274 710 l 274 0 l 154 0 l 154 853 l 31 853 z "},"2":{"ha":607,"x_min":29,"x_max":578,"o":"m 31 0 q 31 168 31 56 q 31 336 31 281 l 457 640 l 457 853 l 150 853 l 150 806 q 151 718 150 789 l 138 718 l 31 718 l 31 719 q 31 829 31 813 q 73 930 31 888 q 174 972 115 972 l 433 972 q 534 930 492 972 q 576 829 576 888 l 576 579 l 150 279 l 150 119 l 457 119 l 457 254 l 576 254 l 576 253 l 576 0 l 31 0 z "},"3":{"ha":607,"x_min":31,"x_max":578,"o":"m 247 426 l 247 546 l 457 546 l 457 853 l 150 853 l 150 806 q 151 718 150 789 l 138 718 l 31 718 l 31 719 q 31 829 31 813 q 73 930 31 888 q 174 972 115 972 l 433 972 q 534 930 492 972 q 576 829 576 888 l 576 143 q 534 42 576 85 q 433 0 492 0 l 174 0 q 73 42 115 0 q 31 143 31 85 q 31 253 31 160 l 31 254 l 138 254 l 150 254 l 150 119 l 457 119 l 457 426 l 247 426 z "},"4":{"ha":601,"x_min":31,"x_max":576,"o":"m 457 332 l 457 972 l 576 972 l 576 0 l 457 0 l 457 213 l 174 213 q 73 255 115 213 q 31 357 31 297 l 31 972 l 150 972 l 150 332 l 457 332 z "},"5":{"ha":607,"x_min":31,"x_max":578,"o":"m 138 254 q 144 254 140 254 q 150 254 149 254 l 150 119 l 457 119 l 457 426 l 32 426 l 32 575 l 31 576 l 31 972 l 576 972 l 576 853 l 576 806 q 576 778 576 794 q 576 747 576 763 q 576 719 576 732 l 576 718 l 469 718 l 457 718 q 457 806 457 789 l 457 853 l 150 853 l 150 546 l 576 546 q 576 376 576 497 q 576 189 576 254 l 576 143 q 534 42 576 85 q 433 0 492 0 l 174 0 q 73 42 115 0 q 31 143 31 85 q 31 253 31 160 l 31 254 l 138 254 z "},"6":{"ha":607,"x_min":31,"x_max":578,"o":"m 365 972 l 365 853 l 150 853 l 150 543 l 433 543 q 534 501 492 543 q 576 399 576 458 l 576 143 q 557 72 576 104 q 505 19 538 39 q 433 0 472 0 l 174 0 q 73 42 115 0 q 31 143 31 85 q 31 447 31 244 q 31 751 31 650 l 31 829 q 73 930 31 888 q 174 972 115 972 l 365 972 m 457 119 l 457 424 l 150 424 l 150 376 l 150 119 l 457 119 z "},"7":{"ha":607,"x_min":29,"x_max":578,"o":"m 244 -1 q 244 130 244 35 q 244 261 244 225 l 457 628 l 457 851 l 410 851 l 150 851 l 150 804 q 151 717 150 788 l 31 717 l 31 718 l 31 971 l 576 971 l 576 601 l 364 228 l 364 -1 l 244 -1 z "},"8":{"ha":607,"x_min":31,"x_max":578,"o":"m 31 399 q 47 464 31 433 l 58 486 l 47 508 q 31 574 31 539 l 31 829 q 73 930 31 888 q 174 972 115 972 l 433 972 q 534 930 492 972 q 576 829 576 888 l 576 574 q 561 508 576 539 l 549 486 l 561 464 q 576 399 576 433 l 576 143 q 534 42 576 85 q 433 0 492 0 l 174 0 q 73 42 115 0 q 31 143 31 85 l 31 399 m 150 853 l 150 549 l 457 549 l 457 853 l 150 853 m 457 424 l 150 424 l 150 119 l 457 119 l 457 424 z "},"9":{"ha":601,"x_min":29,"x_max":578,"o":"m 242 0 l 242 119 l 457 119 l 457 429 l 174 429 q 78 467 119 429 q 32 558 38 504 l 31 565 l 31 829 q 73 930 31 888 q 174 972 115 972 l 433 972 q 534 930 492 972 q 576 829 576 888 q 576 635 576 744 q 576 415 576 525 q 576 222 576 306 l 576 143 q 534 42 576 85 q 433 0 492 0 l 242 0 m 150 853 l 150 549 l 457 549 l 457 596 l 457 853 l 150 853 z "},"\u0000":{"ha":0,"x_min":0,"x_max":0,"o":""},"\n":{"ha":0,"x_min":0,"x_max":0,"o":""},"\r":{"ha":0,"x_min":0,"x_max":0,"o":""}," ":{"ha":371,"x_min":0,"x_max":0,"o":""},",":{"ha":157,"x_min":31,"x_max":126,"o":"m 31 94 l 126 94 l 126 -72 l 68 -72 l 68 -49 q 67 -23 68 -31 q 61 -8 67 -15 q 43 -1 56 -1 l 31 -1 l 31 94 z "},".":{"ha":157,"x_min":31,"x_max":126,"o":"m 126 -1 l 31 -1 l 31 94 l 126 94 l 126 -1 z "},"A":{"ha":607,"x_min":31,"x_max":578,"o":"m 150 0 l 31 0 l 31 568 l 31 569 q 31 574 31 571 l 31 829 q 73 930 31 888 q 174 972 115 972 l 433 972 q 505 953 472 972 q 557 901 538 933 q 576 829 576 868 l 576 0 l 457 0 l 457 429 l 150 429 l 150 0 m 457 853 l 150 853 l 150 549 l 457 549 l 457 853 z "},"B":{"ha":607,"x_min":31,"x_max":578,"o":"m 31 0 l 31 972 q 226 972 90 972 q 433 972 361 972 q 534 930 492 972 q 576 829 576 888 l 576 574 q 550 519 576 546 l 518 486 l 550 453 q 576 399 576 426 l 576 143 q 534 42 576 85 q 433 0 492 0 l 31 0 m 150 422 l 150 119 l 457 119 l 457 422 l 150 422 m 457 853 l 150 853 l 150 549 l 457 549 l 457 853 z "},"C":{"ha":607,"x_min":31,"x_max":578,"o":"m 576 639 q 514 639 554 639 q 457 639 474 639 l 457 853 l 150 853 l 150 119 l 457 119 l 457 167 l 457 332 l 576 332 l 576 143 q 534 42 576 85 q 433 0 492 0 l 174 0 q 73 42 115 0 q 31 143 31 85 l 31 829 q 73 930 31 888 q 174 972 115 972 l 433 972 q 505 953 472 972 q 557 901 538 933 q 576 829 576 868 l 576 639 z "},"D":{"ha":607,"x_min":31,"x_max":578,"o":"m 433 0 q 231 0 365 0 q 31 0 97 0 l 31 972 q 226 972 90 972 q 433 972 361 972 q 489 961 463 972 q 535 931 515 950 q 565 885 554 911 q 576 829 576 858 l 576 143 q 534 42 576 85 q 433 0 492 0 m 457 119 l 457 853 l 150 853 l 150 806 l 150 119 l 457 119 z "},"E":{"ha":607,"x_min":31,"x_max":578,"o":"m 31 972 l 576 972 l 576 853 l 150 853 l 150 546 l 368 546 l 368 426 l 150 426 l 150 119 l 576 119 l 576 0 l 31 0 l 31 972 z "},"F":{"ha":607,"x_min":31,"x_max":578,"o":"m 31 972 l 576 972 l 576 853 l 150 853 l 150 546 l 368 546 l 368 426 l 150 426 l 150 0 l 31 0 l 31 972 z "},"G":{"ha":607,"x_min":31,"x_max":578,"o":"m 576 732 l 457 732 l 457 853 l 150 853 l 150 119 l 457 119 l 457 426 l 343 426 l 343 546 l 576 546 l 576 426 l 576 143 q 534 42 576 85 q 433 0 492 0 l 174 0 q 73 42 115 0 q 31 143 31 85 l 31 829 q 73 930 31 888 q 174 972 115 972 l 576 972 l 576 732 z "},"H":{"ha":610,"x_min":31,"x_max":581,"o":"m 31 972 l 150 972 l 150 546 l 460 546 l 460 972 l 579 972 l 579 0 l 460 0 l 460 426 l 150 426 l 150 0 l 31 0 l 31 972 z "},"I":{"ha":181,"x_min":31,"x_max":150,"o":"m 31 972 l 150 972 l 150 0 l 31 0 l 31 972 z "},"J":{"ha":576,"x_min":28,"x_max":546,"o":"m 426 119 l 426 972 l 546 972 l 546 0 l 168 0 q 128 0 144 0 q 88 5 113 0 q 51 19 63 10 q 31 113 29 40 l 31 333 l 150 333 l 150 119 l 426 119 z "},"K":{"ha":607,"x_min":31,"x_max":578,"o":"m 31 0 l 31 972 l 150 972 l 150 549 l 457 549 l 457 972 q 495 972 475 972 q 539 972 515 972 q 576 972 563 972 l 576 600 q 574 560 576 572 q 558 531 571 547 q 540 503 546 514 q 576 383 576 461 l 576 0 l 457 0 l 457 429 l 150 429 l 150 376 q 150 179 150 307 q 150 0 150 51 l 31 0 z "},"L":{"ha":482,"x_min":29,"x_max":453,"o":"m 31 0 l 31 972 l 150 972 l 150 119 l 451 119 l 451 0 l 31 0 z "},"M":{"ha":819,"x_min":31,"x_max":790,"o":"m 31 0 q 31 486 31 163 q 31 972 31 810 l 172 972 l 408 581 l 649 972 l 789 972 l 789 0 l 669 0 l 669 778 l 457 428 l 361 428 l 150 778 l 150 0 l 31 0 z "},"N":{"ha":607,"x_min":31,"x_max":576,"o":"m 31 972 l 165 972 l 457 271 l 457 972 l 576 972 l 576 0 l 440 0 l 150 700 l 150 0 l 31 0 l 31 972 z "},"O":{"ha":607,"x_min":31,"x_max":578,"o":"m 576 829 l 576 143 q 534 42 576 85 q 433 0 492 0 l 174 0 q 73 42 115 0 q 31 143 31 85 l 31 829 q 73 930 31 888 q 174 972 115 972 l 433 972 q 534 930 492 972 q 576 829 576 888 m 150 853 l 150 119 l 457 119 l 457 165 l 457 853 l 150 853 z "},"P":{"ha":607,"x_min":31,"x_max":578,"o":"m 31 574 l 31 972 l 433 972 q 505 953 472 972 q 557 901 538 933 q 576 829 576 868 l 576 574 q 534 472 576 514 q 433 429 492 429 l 150 429 l 150 0 l 31 0 l 31 568 l 31 569 q 31 574 31 571 m 457 853 l 150 853 l 150 549 l 457 549 l 457 853 z "},"Q":{"ha":663,"x_min":29,"x_max":633,"o":"m 632 -50 l 554 -115 l 457 0 l 435 0 q 433 0 435 0 l 174 0 q 73 42 115 0 q 31 143 31 85 l 31 160 l 31 829 q 73 930 31 888 q 174 972 115 972 l 433 972 q 534 930 492 972 q 576 829 576 888 l 576 143 q 561 79 576 108 l 547 50 l 632 -50 m 457 283 q 457 492 457 357 q 457 683 457 626 l 457 853 l 150 853 l 150 119 l 356 119 l 282 206 l 358 271 l 457 156 l 457 283 z "},"R":{"ha":607,"x_min":31,"x_max":578,"o":"m 576 0 l 457 0 l 457 429 l 150 429 l 150 0 l 31 0 l 31 568 l 31 569 q 31 574 31 571 l 31 972 l 433 972 q 534 930 492 972 q 576 829 576 888 l 576 599 q 575 576 576 586 q 572 560 574 567 q 567 545 571 554 q 560 533 563 536 q 551 518 558 531 q 540 503 543 506 q 576 392 576 458 l 576 0 m 457 853 l 150 853 l 150 549 l 457 549 l 457 853 z "},"S":{"ha":607,"x_min":29,"x_max":578,"o":"m 469 718 q 463 718 467 718 q 457 718 458 718 q 457 806 457 790 l 457 853 l 150 853 l 150 806 l 150 649 l 576 401 l 576 143 q 534 42 576 85 q 433 0 492 0 l 31 0 q 31 117 31 29 q 31 254 31 206 l 138 254 l 151 254 q 150 167 150 183 l 150 119 l 457 119 l 457 333 l 433 347 q 262 444 415 358 q 31 579 108 531 l 31 829 q 73 930 31 888 q 174 972 115 972 l 576 972 q 576 855 576 943 q 576 718 576 767 l 469 718 z "},"T":{"ha":607,"x_min":31,"x_max":578,"o":"m 31 972 l 576 972 l 576 853 l 364 853 l 364 0 l 244 0 l 244 853 l 31 853 l 31 972 z "},"U":{"ha":607,"x_min":31,"x_max":578,"o":"m 31 972 l 150 972 l 150 119 l 457 119 l 457 167 l 457 972 l 576 972 l 576 672 q 576 408 576 585 q 576 143 576 232 q 534 42 576 85 q 433 0 492 0 l 174 0 q 73 42 115 0 q 31 143 31 85 l 31 972 z "},"V":{"ha":796,"x_min":31,"x_max":765,"o":"m 154 972 l 374 124 l 422 124 l 642 972 l 765 972 l 514 0 l 282 0 l 31 972 l 154 972 z "},"W":{"ha":1024,"x_min":31,"x_max":993,"o":"m 135 0 l 31 972 l 150 972 l 238 157 l 471 543 l 565 544 l 799 163 l 874 972 l 993 972 l 903 0 l 758 0 l 518 392 l 282 0 l 135 0 z "},"X":{"ha":761,"x_min":31,"x_max":731,"o":"m 168 972 l 381 606 l 592 972 l 731 972 l 449 486 l 731 0 l 592 0 l 381 367 l 168 0 l 31 0 l 311 486 l 31 972 l 168 972 z "},"Y":{"ha":607,"x_min":31,"x_max":578,"o":"m 457 972 l 576 972 q 576 778 576 913 q 576 571 576 643 q 557 499 576 532 q 505 447 538 467 q 433 428 472 428 l 364 428 l 364 0 l 244 0 l 244 428 l 174 428 q 73 470 115 428 q 31 571 31 513 l 31 972 l 150 972 l 150 547 l 457 547 l 457 594 q 457 790 457 663 q 457 972 457 918 z "},"Z":{"ha":607,"x_min":29,"x_max":578,"o":"m 415 319 l 31 615 l 31 972 l 576 972 l 576 853 l 150 853 l 150 674 l 576 347 l 576 0 l 31 0 l 31 119 l 457 119 l 457 285 l 415 319 z "},"a":{"ha":656,"x_min":31,"x_max":626,"o":"m 456 596 l 575 596 q 576 383 575 525 q 576 169 576 240 l 576 122 l 625 122 l 625 3 l 622 3 l 174 3 q 73 45 115 3 q 31 147 31 88 l 31 403 q 73 503 31 461 q 174 546 115 546 l 456 546 l 456 596 m 150 122 l 456 122 l 456 426 l 150 426 l 150 122 z "},"b":{"ha":607,"x_min":31,"x_max":578,"o":"m 31 3 l 31 979 l 150 979 l 150 546 l 433 546 q 534 503 492 546 q 576 403 576 461 l 576 147 q 534 45 576 88 q 433 3 492 3 l 31 3 m 457 426 l 150 426 l 150 122 l 457 122 l 457 426 z "},"c":{"ha":607,"x_min":31,"x_max":578,"o":"m 576 550 l 576 429 q 396 430 525 429 q 197 431 267 431 l 150 431 l 150 126 l 197 126 q 395 127 267 126 q 576 128 524 128 l 576 6 l 174 6 q 73 48 115 6 q 31 150 31 90 l 31 406 q 73 508 31 465 q 174 550 115 550 l 576 550 z "},"d":{"ha":607,"x_min":31,"x_max":578,"o":"m 457 979 l 576 979 l 576 3 l 174 3 q 73 45 115 3 q 31 147 31 88 l 31 403 q 50 474 31 442 q 102 526 69 507 q 174 546 135 546 l 457 546 l 457 979 m 457 122 l 457 426 l 150 426 l 150 122 l 457 122 z "},"e":{"ha":607,"x_min":31,"x_max":576,"o":"m 576 550 q 576 281 576 442 q 394 278 522 279 q 197 278 267 278 l 150 278 l 150 97 l 197 97 q 354 98 253 97 q 494 99 456 99 l 494 6 l 167 6 l 158 7 q 93 31 122 11 q 47 83 64 51 q 31 150 31 114 l 31 406 q 73 508 31 465 q 174 550 115 550 l 576 550 m 476 460 l 154 460 l 154 369 l 476 369 l 476 460 z "},"f":{"ha":410,"x_min":29,"x_max":381,"o":"m 206 439 l 335 439 l 335 319 l 206 319 l 206 6 l 86 6 l 86 319 l 31 319 l 31 439 l 85 439 l 85 619 q 127 722 85 679 q 229 764 169 764 l 379 764 l 379 644 l 204 644 l 204 496 l 206 496 l 206 439 z "},"g":{"ha":608,"x_min":29,"x_max":578,"o":"m 411 4 q 213 5 342 4 q 31 6 85 6 l 31 90 l 31 301 l 31 381 q 31 388 31 385 q 69 504 32 458 q 174 550 106 550 l 578 550 l 578 -146 q 535 -248 578 -206 q 433 -290 493 -290 l 244 -290 l 244 -197 q 316 -196 254 -197 q 411 -194 378 -194 l 458 -194 l 458 4 l 411 4 m 454 128 l 454 431 l 151 431 l 151 128 l 454 128 z "},"h":{"ha":607,"x_min":29,"x_max":578,"o":"m 31 3 l 31 979 l 150 979 l 150 546 l 433 546 q 534 503 492 546 q 576 403 576 461 l 576 3 l 457 3 q 457 192 457 67 q 457 379 457 317 l 457 426 l 150 426 l 150 3 l 31 3 z "},"i":{"ha":181,"x_min":31,"x_max":150,"o":"m 150 3 l 31 3 l 31 551 l 150 551 l 150 3 m 150 663 l 31 663 l 31 764 l 150 764 l 150 663 z "},"j":{"ha":394,"x_min":31,"x_max":364,"o":"m 363 764 l 363 663 l 243 663 l 243 764 l 363 764 m 244 551 l 364 551 q 364 209 364 442 q 364 -146 364 -24 q 344 -218 364 -185 q 292 -271 325 -251 q 219 -290 258 -290 l 31 -290 l 31 -171 q 102 -171 40 -171 q 197 -171 164 -171 l 244 -171 l 244 -39 q 244 265 244 67 q 244 551 244 464 z "},"k":{"ha":601,"x_min":25,"x_max":572,"o":"m 25 3 l 25 979 l 144 979 l 144 343 l 451 343 l 451 390 q 451 551 451 417 l 571 551 l 571 368 q 564 341 571 358 q 545 301 557 324 q 531 272 533 279 q 545 251 532 269 q 565 221 558 233 q 571 199 571 208 l 571 6 l 451 6 l 451 224 l 144 224 l 144 3 l 25 3 z "},"l":{"ha":181,"x_min":31,"x_max":150,"o":"m 150 978 l 150 1 l 31 1 l 31 978 l 150 978 z "},"m":{"ha":1026,"x_min":31,"x_max":997,"o":"m 575 428 l 575 1 l 453 1 l 453 428 l 153 428 l 153 381 q 153 185 153 313 q 153 1 153 57 l 31 1 l 31 404 q 73 505 31 463 q 175 547 115 547 l 431 547 q 493 533 464 547 l 514 522 l 533 533 q 596 547 564 547 l 853 547 q 948 511 907 547 q 996 421 989 475 l 996 403 l 996 1 l 875 1 q 876 183 875 54 q 876 381 876 311 l 876 428 l 575 428 z "},"n":{"ha":606,"x_min":29,"x_max":575,"o":"m 575 1 l 453 1 q 453 183 453 54 q 454 381 454 311 l 454 428 l 150 428 l 150 381 q 151 182 150 311 q 151 1 151 53 l 31 1 l 31 144 l 31 547 l 431 547 q 500 529 467 547 q 554 479 533 511 q 575 411 575 447 l 575 1 z "},"o":{"ha":607,"x_min":31,"x_max":578,"o":"m 174 544 l 433 544 q 534 502 492 544 q 576 400 576 460 l 576 144 q 534 44 576 86 q 433 1 492 1 l 174 1 q 73 44 115 1 q 31 144 31 86 l 31 400 q 73 502 31 460 q 174 544 115 544 m 457 121 l 457 425 l 150 425 l 150 121 l 457 121 z "},"p":{"ha":607,"x_min":31,"x_max":578,"o":"m 150 -215 l 31 -215 l 31 544 l 433 544 q 534 502 492 544 q 576 400 576 460 l 576 144 q 534 44 576 86 q 433 1 492 1 l 150 1 l 150 -215 m 150 425 l 150 121 l 457 121 l 457 425 l 150 425 z "},"q":{"ha":607,"x_min":31,"x_max":578,"o":"m 576 400 l 576 -193 q 467 -165 483 -190 q 457 -72 457 -150 l 457 1 l 174 1 q 73 44 115 1 q 31 144 31 86 l 31 400 q 73 502 31 460 q 174 544 115 544 l 433 544 q 534 502 492 544 q 576 400 576 460 m 457 121 l 457 425 l 150 425 l 150 121 l 457 121 z "},"r":{"ha":603,"x_min":31,"x_max":574,"o":"m 392 428 q 371 428 376 428 q 315 428 346 428 q 252 428 285 428 q 197 428 219 428 l 150 428 l 150 121 l 151 121 l 151 1 l 31 1 l 31 403 l 32 421 q 56 485 36 457 q 108 531 76 514 q 175 547 139 547 l 431 547 q 524 513 483 547 q 572 428 564 479 q 429 428 476 428 q 417 428 425 428 q 403 428 410 428 q 392 428 397 428 z "},"s":{"ha":608,"x_min":29,"x_max":578,"o":"m 150 308 l 576 308 q 576 227 576 282 q 576 144 576 172 q 534 44 576 86 q 433 1 492 1 l 31 1 l 31 121 q 151 121 81 121 q 289 121 222 121 q 410 121 356 121 l 457 121 l 457 221 l 31 221 l 31 404 q 73 505 31 463 q 174 547 115 547 l 433 547 l 578 547 l 578 426 q 391 428 518 428 q 197 428 264 428 l 150 428 l 150 308 z "},"t":{"ha":382,"x_min":29,"x_max":351,"o":"m 206 763 l 206 547 l 335 547 l 335 428 l 206 428 l 206 121 l 351 121 l 351 1 l 86 1 l 86 428 l 31 428 l 31 547 l 86 547 l 86 763 l 206 763 z "},"u":{"ha":607,"x_min":31,"x_max":578,"o":"m 31 544 l 150 544 l 150 121 l 457 121 l 457 544 l 576 544 l 576 144 q 557 73 576 106 q 505 21 538 40 q 433 1 472 1 l 174 1 q 73 44 115 1 q 31 144 31 86 l 31 544 z "},"v":{"ha":619,"x_min":31,"x_max":590,"o":"m 150 547 l 150 390 l 310 64 l 469 390 l 469 547 l 589 547 l 589 392 l 393 1 l 226 1 l 31 392 l 31 547 l 150 547 z "},"w":{"ha":1032,"x_min":31,"x_max":1001,"o":"m 439 333 l 592 333 l 710 100 l 739 100 l 882 390 l 882 547 l 1000 547 l 1000 392 l 804 1 l 651 1 l 515 271 l 381 1 l 226 1 l 31 392 l 31 547 l 150 547 l 150 390 l 292 100 l 322 100 l 439 333 z "},"x":{"ha":606,"x_min":31,"x_max":575,"o":"m 235 272 l 31 547 l 165 547 l 303 363 l 439 547 l 575 547 l 369 272 l 571 1 l 436 1 l 303 181 l 169 1 l 33 1 l 235 272 z "},"y":{"ha":608,"x_min":31,"x_max":578,"o":"m 31 3 l 31 547 l 151 547 q 151 367 151 494 q 150 169 150 239 l 150 124 l 460 124 l 460 169 q 459 367 460 239 q 458 547 458 496 l 578 547 l 578 -151 q 558 -224 578 -190 q 506 -276 539 -257 q 433 -296 472 -296 l 244 -296 l 244 -203 q 316 -201 254 -203 q 411 -200 378 -200 l 458 -200 l 458 1 l 411 1 q 213 2 342 1 q 31 3 85 3 z "},"z":{"ha":610,"x_min":31,"x_max":579,"o":"m 579 547 l 579 428 l 175 428 l 579 157 l 579 1 l 31 1 l 31 121 l 415 121 l 31 383 l 31 547 l 579 547 z "}," ":{"ha":371,"x_min":0,"x_max":0,"o":""},"­":{"ha":0,"x_min":0,"x_max":0,"o":""}}}
